<svg width="6" height="8" viewBox="0 0 6 8" fill="none" xmlns="http://www.w3.org/2000/svg">
<path d="M5.6652 0.92C5.63853 1.20667 5.61853 1.48333 5.6052 1.75C5.59853 2.01667 5.5952 2.22 5.5952 2.36C5.5952 2.51333 5.59853 2.65667 5.6052 2.79C5.61186 2.92333 5.61853 3.04 5.6252 3.14H5.3952C5.32186 2.64 5.22186 2.24667 5.0952 1.96C4.96853 1.66667 4.79853 1.46 4.5852 1.34C4.37186 1.21333 4.08853 1.15 3.7352 1.15H3.3052C3.1052 1.15 2.95186 1.16667 2.8452 1.2C2.73853 1.23333 2.6652 1.30333 2.6252 1.41C2.59186 1.51667 2.5752 1.68 2.5752 1.9V6.9C2.5752 7.15333 2.60186 7.34333 2.6552 7.47C2.70853 7.59667 2.81186 7.68 2.9652 7.72C3.11853 7.76 3.33853 7.78333 3.6252 7.79V8C3.43186 7.98667 3.18186 7.98 2.8752 7.98C2.56853 7.97333 2.25186 7.97 1.9252 7.97C1.6452 7.97 1.3752 7.97333 1.1152 7.98C0.855195 7.98 0.628529 7.98667 0.435195 8V7.8C0.655195 7.78667 0.818529 7.76 0.925195 7.72C1.03853 7.68 1.11186 7.6 1.1452 7.48C1.1852 7.36 1.2052 7.18 1.2052 6.94V1.98C1.2052 1.73333 1.1852 1.55333 1.1452 1.44C1.11186 1.32 1.03853 1.24 0.925195 1.2C0.818529 1.15333 0.655195 1.12667 0.435195 1.12V0.92C0.701862 0.926667 0.981862 0.933333 1.2752 0.94C1.5752 0.94 1.86853 0.943333 2.1552 0.95C2.44853 0.95 2.71853 0.95 2.9652 0.95C3.21853 0.95 3.42186 0.95 3.5752 0.95C3.88186 0.95 4.22853 0.95 4.6152 0.95C5.00853 0.943333 5.35853 0.933333 5.6652 0.92ZM4.1552 4.4C4.1552 4.4 4.1552 4.43333 4.1552 4.5C4.1552 4.56667 4.1552 4.6 4.1552 4.6H2.2752C2.2752 4.6 2.2752 4.56667 2.2752 4.5C2.2752 4.43333 2.2752 4.4 2.2752 4.4H4.1552ZM4.3852 3.08C4.35853 3.46 4.3452 3.75 4.3452 3.95C4.35186 4.15 4.3552 4.33333 4.3552 4.5C4.3552 4.66667 4.35853 4.85 4.3652 5.05C4.37186 5.25 4.38853 5.54 4.4152 5.92H4.1852C4.15853 5.69333 4.10853 5.48 4.0352 5.28C3.96186 5.07333 3.84853 4.91 3.6952 4.79C3.54853 4.66333 3.3352 4.6 3.0552 4.6V4.4C3.26186 4.4 3.43186 4.35667 3.5652 4.27C3.69853 4.18333 3.80186 4.07333 3.8752 3.94C3.9552 3.8 4.0152 3.65667 4.0552 3.51C4.10186 3.35667 4.1352 3.21333 4.1552 3.08H4.3852Z" fill="black"/>
</svg>
