<svg width="13" height="17" viewBox="0 0 13 17" fill="none" xmlns="http://www.w3.org/2000/svg">
<path d="M12.8965 0.0079999C12.8325 0.696 12.7845 1.36 12.7525 2C12.7365 2.64 12.7285 3.128 12.7285 3.464C12.7285 3.832 12.7365 4.176 12.7525 4.496C12.7685 4.816 12.7845 5.096 12.8005 5.336H12.2485C12.0725 4.136 11.8325 3.192 11.5285 2.504C11.2245 1.8 10.8165 1.304 10.3045 1.016C9.79247 0.711999 9.11247 0.559999 8.26447 0.559999H7.23247C6.75247 0.559999 6.38447 0.599999 6.12847 0.68C5.87247 0.76 5.69647 0.927999 5.60047 1.184C5.52047 1.44 5.48047 1.832 5.48047 2.36V14.36C5.48047 14.968 5.54447 15.424 5.67247 15.728C5.80047 16.032 6.04847 16.232 6.41647 16.328C6.78447 16.424 7.31247 16.48 8.00047 16.496V17C7.53647 16.968 6.93647 16.952 6.20047 16.952C5.46447 16.936 4.70447 16.928 3.92047 16.928C3.24847 16.928 2.60047 16.936 1.97647 16.952C1.35247 16.952 0.808469 16.968 0.344469 17V16.52C0.872469 16.488 1.26447 16.424 1.52047 16.328C1.79247 16.232 1.96847 16.04 2.04847 15.752C2.14447 15.464 2.19247 15.032 2.19247 14.456V2.552C2.19247 1.96 2.14447 1.528 2.04847 1.256C1.96847 0.967999 1.79247 0.776 1.52047 0.68C1.26447 0.567999 0.872469 0.503999 0.344469 0.487999V0.0079999C0.984469 0.0239997 1.65647 0.0399995 2.36047 0.0559993C3.08047 0.0559993 3.78447 0.0639992 4.47247 0.079999C5.17647 0.079999 5.82447 0.079999 6.41647 0.079999C7.02447 0.079999 7.51247 0.079999 7.88047 0.079999C8.61647 0.079999 9.44847 0.079999 10.3765 0.079999C11.3205 0.0639992 12.1605 0.0399995 12.8965 0.0079999ZM9.27247 8.36C9.27247 8.36 9.27247 8.44 9.27247 8.6C9.27247 8.76 9.27247 8.84 9.27247 8.84H4.76047C4.76047 8.84 4.76047 8.76 4.76047 8.6C4.76047 8.44 4.76047 8.36 4.76047 8.36H9.27247ZM9.82447 5.192C9.76047 6.104 9.72847 6.8 9.72847 7.28C9.74447 7.76 9.75247 8.2 9.75247 8.6C9.75247 9 9.76047 9.44 9.77647 9.92C9.79247 10.4 9.83247 11.096 9.89647 12.008H9.34447C9.28047 11.464 9.16047 10.952 8.98447 10.472C8.80847 9.976 8.53647 9.584 8.16847 9.296C7.81647 8.992 7.30447 8.84 6.63247 8.84V8.36C7.12847 8.36 7.53647 8.256 7.85647 8.048C8.17647 7.84 8.42447 7.576 8.60047 7.256C8.79247 6.92 8.93647 6.576 9.03247 6.224C9.14447 5.856 9.22447 5.512 9.27247 5.192H9.82447Z" fill="white"/>
</svg>
